# xmcd
#
# Track frame offsets: 
#        150
#        21036
#        35085
#        51238
#        65155
#        81489
#        97060
#        112132
#        129570
#        145655
#
# Disc length: 2243 seconds
#
# Revision: 0
# Processed by: cddbd v1.5.2PL0 Copyright (c) Steve Scherf et al.
# Submitted via: ExactAudioCopy v0.99pb3
#
DISCID=9708c10a
DTITLE=Jake Owen - Easy Does It
DYEAR=2009
DGENRE=Country
TTITLE0=Tell Me
TTITLE1=Eight Second Ride
TTITLE2=Easy Does It
TTITLE3=Don't Think I Can't Love You
TTITLE4=Cherry On Top
TTITLE5=Who Said Whiskey (Was Meant to Drink a Woman Away)
TTITLE6=Green Bananas
TTITLE7=Anything for You
TTITLE8=Every Reason I Go Back
TTITLE9=Nothin' Grows in Shadows
EXTD=
EXTT0=
EXTT1=
EXTT2=
EXTT3=
EXTT4=
EXTT5=
EXTT6=
EXTT7=
EXTT8=
EXTT9=
PLAYORDER=
